HIERARCHY
ROOT Hips
{
    OFFSET 13.709589004516602 83.16943359375 -17.800140380859375
    CHANNELS 6 Xposition Yposition Zposition Zrotation Xrotation Yrotation
    JOINT RightUpLeg
    {
        OFFSET -13.709589004516602 0.0 0.0
        CHANNELS 3 Zrotation Xrotation Yrotation
        JOINT RightLeg
        {
            OFFSET 0.0 -38.66908264160156 0.0
            CHANNELS 3 Zrotation Xrotation Yrotation
            JOINT RightFoot
            {
                OFFSET 0.0 -44.50035095214844 0.0
                CHANNELS 3 Zrotation Xrotation Yrotation
                End Site
                {
                    OFFSET 0.0 0.0 17.800140380859375
                }
            }
        }
    }
    JOINT LeftUpLeg
    {
        OFFSET 13.709589004516602 0.0 0.0
        CHANNELS 3 Zrotation Xrotation Yrotation
        JOINT LeftLeg
        {
            OFFSET 0.0 -38.66908264160156 0.0
            CHANNELS 3 Zrotation Xrotation Yrotation
            JOINT LeftFoot
            {
                OFFSET 0.0 -44.50035095214844 0.0
                CHANNELS 3 Zrotation Xrotation Yrotation
                End Site
                {
                    OFFSET 0.0 0.0 17.800140380859375
                }
            }
        }
    }
    JOINT Spine
    {
        OFFSET 0.0 22.546960830688477 0.0
        CHANNELS 3 Zrotation Xrotation Yrotation
        JOINT Spine3
        {
            OFFSET 0.0 25.482175827026367 0.0
            CHANNELS 3 Zrotation Xrotation Yrotation
            JOINT Neck
            {
                OFFSET 0.0 10.432720184326172 0.0
                CHANNELS 3 Zrotation Xrotation Yrotation
                End Site
                {
                    OFFSET 0.0 4.173088550567627 0.0
                }
            }
            JOINT LeftArm
            {
                OFFSET 14.628153800964355 0.0 0.0
                CHANNELS 3 Zrotation Xrotation Yrotation
                JOINT LeftForeArm
                {
                    OFFSET 26.71859359741211 0.0 0.0
                    CHANNELS 3 Zrotation Xrotation Yrotation
                    JOINT LeftHand
                    {
                        OFFSET 19.403804779052734 0.0 0.0
                        CHANNELS 3 Zrotation Xrotation Yrotation
                        End Site
                        {
                            OFFSET 7.76152229309082 0.0 0.0
                        }
                    }
                }
            }
            JOINT RightArm
            {
                OFFSET -14.628153800964355 0.0 0.0
                CHANNELS 3 Zrotation Xrotation Yrotation
                JOINT RightForeArm
                {
                    OFFSET -26.71859359741211 0.0 0.0
                    CHANNELS 3 Zrotation Xrotation Yrotation
                    JOINT RightHand
                    {
                        OFFSET -19.403804779052734 0.0 0.0
                        CHANNELS 3 Zrotation Xrotation Yrotation
                        End Site
                        {
                            OFFSET -7.76152229309082 0.0 0.0
                        }
                    }
                }
            }
        }
    }
}
MOTION
Frames: 8
Frame Time: 0.03333333333333333
0.0005516627570614219 55.48992919921875 -0.0007818232988938689 10.02617137455871 -6.690696624917503 70.31816717077626 17.794967926684784 -60.4376995064879 11.49076883941921 12.142986686475252 76.1975517835878 -18.092030081977473 0.0 0.0 -7.454425034680117e-16 -20.186887571350887 -58.03902186982477 -21.402992001466743 67.78552388456625 80.61719237848055 -54.591362233165505 -8.448348372637465e-16 -1.5902773407317582e-15 2.5345045117912397e-15 8.896625144793626 22.76307372783443 -1.655365768954664 5.563200679121876e-07 3.723838813919426e-07 6.544235769942506 -5.0059236538203455 -9.33152862136253 176.68868778581992 101.13915883248045 -5.145469359972791 -169.15954362661518 3.197630116086421e-07 -5.769766382485015e-06 39.90855328642108 0.0 0.0 0.0 -119.03632731403798 1.3110680383614588 148.83843901865882 -1.9511823611310507e-06 -2.8059924375475398e-06 -71.0344816681997 7.95138670365879e-16 5.517382872562698e-33 7.95138670365879e-16
0.0005196603597141802 55.48992919921875 -0.000794729043263942 10.071249169504977 -6.583714611084444 70.29330211650877 17.90823239759393 -60.45756792219905 11.611382400697911 11.924977338665402 76.56490922755776 -17.964552120561088 1.077613842297402e-32 1.9878466759146977e-16 -6.21202086223343e-15 -19.918334746871682 -57.933464303256414 -21.12260822613054 67.41431545993214 80.71895655141182 -54.33179516482308 -1.4908850069360235e-16 2.4848083448933716e-17 7.355032700884382e-15 8.793468483257742 22.780154704226998 -1.6245881559065698 8.469044094363027e-08 3.149465215256548e-07 6.491320894934952 -4.9970124672816985 -9.148817699057473 176.39771450401352 101.32947758043044 -5.416678150410231 -169.00153623785792 -2.26248831870764e-06 1.995856210066543e-06 40.14909830909804 1.7655625192200634e-31 -6.3611093629270335e-15 3.1805546814635168e-15 -118.75172949457308 1.4360578892813642 149.16293720214856 -8.539012937568556e-07 4.192359383052991e-07 -71.49706907247315 0.0 6.3611093629270335e-15 0.0
0.000528601580299437 55.48991394042969 -0.0007914110319688916 10.090354765035807 -6.53642527001221 70.19604543789804 18.17212538723289 -60.554733183182776 11.862820694183844 12.063305498262402 76.86252309634108 -18.22995980015131 2.155227684594804e-34 1.987846675914698e-16 -1.2424041724466862e-16 -19.803773028596332 -58.07134051738033 -21.041760365008162 67.48426588695241 80.94215612397053 -54.53003057540065 -1.4411888400381567e-15 -1.0781526492185506e-32 8.572588789882139e-16 8.902036704619103 22.856813674241238 -1.6755239050137782 -5.457027914152442e-07 -3.8751184702547106e-07 6.53037546732952 -5.08989193942434 -8.957728689812804 175.5180151003185 101.28134836128767 -5.6328636686617335 -169.0660760953433 -1.6038421836771144e-06 -3.251807218277668e-07 40.360270672584086 1.5902773407317584e-15 0.0 0.0 -118.79687846614243 1.4282318522490076 149.1119162068189 -1.1442675419633603e-06 1.2027063766909733e-06 -71.70596067710036 0.0 0.0 0.0
0.0005425650742836297 55.489933013916016 -0.0007889830158092082 10.138936678289163 -6.552085165207757 70.13849762288115 18.2697610330015 -60.41362377336809 12.00000782152685 12.25995942371035 76.6910180799628 -18.52110338634161 -3.793200724886855e-33 -1.9878466759146985e-16 -2.186631343506168e-15 -19.16652602859159 -58.02587506899146 -20.397215669683053 65.86763314674671 80.92573734974111 -53.24424548283359 -2.012694759363632e-15 -8.248595155865464e-32 4.696287771848475e-15 8.826517525932458 22.86218956616426 -1.6762447259245414 6.735153342538553e-07 -7.289193347045137e-08 6.334108281493737 -4.998233792160981 -8.832131218549312 175.58520470718219 101.10369382444273 -5.318936877519116 -169.09700070731895 -2.0026550170350147e-06 -1.4134971350535323e-06 40.54094531665657 4.770832022195275e-15 -1.5902773407317584e-15 -3.1805546814635168e-15 -118.65956899749172 1.6037911878254805 149.26857214288262 5.450442879849545e-07 1.0734082103286281e-06 -72.1952610262513 7.951386703658792e-16 6.3611093629270335e-15 -4.4139062980501586e-32
0.0004986866842955351 55.48994445800781 -0.0008017595973797143 10.18772682886402 -6.4038884801235785 70.35039925405432 18.051809227316436 -60.296956397414085 11.853517207079856 12.84813203310684 76.61427010329696 -19.04301495109134 -5.586350158469732e-32 7.951386703658791e-16 8.050779037454525e-15 -18.61576167008444 -57.949476648922094 -19.833941226423097 65.66671686978344 80.950992854982 -53.326888114520074 -1.5902773407317584e-15 -1.5902773407317584e-15 1.9664928542007707e-15 8.83893503823091 22.68702294756977 -1.6948060260240336 -5.716399688973677e-07 -3.095605596129566e-07 6.080126186147191 -4.944706899876356 -8.465287922936081 175.1574069492478 101.28503123202337 -5.161782692359948 -169.1603691320972 3.84143973523018e-06 -1.0280729362244792e-06 40.668916467856945 0.0 0.0 0.0 -118.37658671068708 2.029811193322809 149.57891301335198 -8.575105700824975e-07 -2.145207191313206e-06 -72.5066740101059 0.0 0.0 0.0
0.0005113722290843725 55.48992156982422 -0.0007938157068565488 10.152976686430778 -6.305952228350418 70.41183739673166 17.987673439607306 -60.08729316408811 11.781720220726635 12.699496147712248 76.36178548074126 -18.89519607993851 0.0 0.0 2.2363275104040347e-15 -18.50289530180227 -57.94375660650606 -19.724227759022583 65.23351756600941 81.01680246027466 -52.956625765051285 1.46603692348709e-15 -4.228017910253857e-32 -3.304795098708186e-15 8.849848316428648 22.53391875458477 -1.6919566235447365 -7.178388621487139e-08 -5.722103393629082e-07 6.13633396443657 -4.888255731712689 -8.496982709799086 175.20278866291423 101.53461309512525 -6.191934420128767 -169.02720840144417 1.4548927914169505e-06 -3.1718557972198615e-06 40.80727540407498 1.5902773407317584e-15 -4.4139062980501586e-32 -3.1805546814635168e-15 -118.35821804004216 1.8529551033400409 149.57364795893506 1.8034454546532025e-06 5.40795242439713e-06 -72.44993100950848 -1.5902773407317582e-15 0.0 0.0
0.0005078347167000175 55.48994064331055 -0.0007879985496401787 10.200749055960113 -6.284198267927883 70.47918401410634 18.173373959801655 -60.13500498734373 12.041400166414745 12.884277860986522 76.34620028479549 -19.202964912341336 -4.827710013492361e-33 7.951386703658792e-16 6.957463365701443e-16 -18.58734266189436 -57.85539684248274 -19.689730178500593 66.33326630444203 80.93597046098765 -54.03396269156943 2.8575295966273777e-16 6.212020862233435e-18 1.7098587423297516e-15 8.773026283898659 22.584879982869055 -1.7058641605519929 -3.232076436328217e-07 -4.394172116826698e-08 6.0303834674065575 -4.974842769546214 -8.25486729849677 174.51167847797484 101.30378677408221 -5.964493265505124 -168.98472541498433 -2.736875500798727e-06 -3.7674797307957907e-06 40.65624939970846 0.0 6.3611093629270335e-15 0.0 -118.05935199198673 2.207628189768575 149.81267797140106 -2.854111440061348e-06 -3.853352978841919e-06 -73.09023230474631 1.5902773407317584e-15 0.0 0.0
0.0004957758937962353 55.48992919921875 -0.0007897290051914752 10.143303289124162 -6.188453635852225 70.59102688490927 18.237572572856394 -60.08949016096293 12.112416419465452 13.384068501762487 76.34632270404023 -19.742433275262012 7.951386703658794e-16 -1.987846675914699e-16 -8.572588789882137e-15 -18.391234809437076 -57.82153014960733 -19.489751905533595 65.94283852121991 80.88340487216075 -53.73672040035781 2.037542842812565e-15 -1.2424041724466805e-17 3.1153284624100655e-15 8.746146512597132 22.358853836552864 -1.688021413023452 -1.389130009456875e-07 -6.615437241535285e-07 5.936771346500719 -4.7857241483489386 -8.286520990499946 174.81970524285342 101.50271242805421 -6.448705008681749 -168.8610972120541 -2.7620997825700778e-06 -5.538804353939366e-07 41.07953244588373 6.361109362927035e-15 -1.7655625192200634e-31 -3.1805546814635176e-15 -117.88118617838792 2.297320907089311 149.85860633377501 1.238317290526189e-06 1.6105415211686428e-06 -72.92127331249938 -1.590277340731758e-15 0.0 0.0
